<?xml version="1.0" standalone="no"?>
<!DOCTYPE svg PUBLIC "-//W3C//DTD SVG 20010904//EN"
 "http://www.w3.org/TR/2001/REC-SVG-20010904/DTD/svg10.dtd">
<svg version="1.0" xmlns="http://www.w3.org/2000/svg"
 width="700.000000pt" height="700.000000pt" viewBox="0 0 700.000000 700.000000"
 preserveAspectRatio="xMidYMid meet">
<metadata>
Created by potrace 1.14, written by Peter Selinger 2001-2017
</metadata>
<g transform="translate(0.000000,700.000000) scale(0.100000,-0.100000)"
fill="#000000" stroke="none">
<path d="M3462 6544 c-31 -16 -68 -62 -385 -474 -70 -91 -154 -200 -187 -242
-59 -75 -89 -130 -84 -155 1 -7 2 -22 3 -33 0 -11 16 -37 35 -58 l34 -37 174
-5 173 -5 -1 -1550 -1 -1550 -22 -80 c-84 -311 -314 -527 -630 -591 -211 -42
-519 14 -754 139 -127 67 -211 130 -323 242 -105 104 -184 213 -249 344 -39
77 -90 206 -93 234 -1 9 -21 110 -32 161 -9 41 -7 325 3 362 3 12 8 39 11 60
8 48 52 196 73 244 77 174 176 322 291 432 216 208 345 343 414 435 216 287
329 569 374 923 12 96 12 1075 0 1111 -13 40 -67 79 -110 79 -18 0 -51 -12
-74 -27 -23 -16 -257 -199 -521 -408 -307 -243 -484 -390 -492 -407 -16 -38
-4 -90 27 -119 25 -24 27 -24 268 -27 l243 -3 -2 -22 c-18 -153 -48 -273 -103
-407 -76 -188 -184 -344 -343 -496 -169 -162 -241 -236 -300 -309 -224 -277
-389 -664 -424 -1000 -4 -33 -9 -71 -11 -85 -5 -32 -5 -285 0 -330 28 -235 55
-348 137 -570 44 -118 186 -358 286 -486 268 -338 681 -600 1098 -699 171 -40
291 -53 535 -56 74 0 126 -4 115 -7 -74 -25 -154 -107 -186 -192 -70 -186 44
-393 238 -433 85 -17 1618 -15 1683 2 99 27 190 113 225 212 17 49 20 150 6
197 -26 86 -96 167 -175 203 l-41 19 200 0 c240 1 312 5 430 26 50 9 99 17
110 19 32 4 165 42 230 64 316 110 617 313 834 562 103 117 108 125 177 227
112 167 244 467 269 611 3 19 8 37 10 41 2 4 9 35 15 71 37 223 35 599 -5 739
-2 8 -7 31 -10 50 -9 52 -23 104 -57 205 -107 318 -300 611 -554 841 -115 105
-124 113 -185 184 -75 87 -145 194 -203 310 -26 52 -48 96 -47 97 1 5 -10 38
-19 54 -18 35 -57 208 -66 297 l-7 62 231 0 c145 0 240 4 255 11 48 22 71 97
44 145 -14 26 -18 29 -277 233 -113 89 -212 167 -220 174 -125 102 -502 394
-526 409 -58 34 -139 8 -165 -53 -9 -24 -12 -146 -11 -517 2 -565 4 -604 43
-792 55 -268 179 -527 367 -764 55 -70 224 -243 352 -361 229 -212 379 -498
417 -797 9 -70 9 -269 0 -338 -36 -279 -168 -539 -377 -746 -255 -253 -577
-388 -925 -388 -372 0 -676 234 -777 599 l-22 80 -2 1553 -2 1552 133 0 c74 0
145 4 158 9 61 23 100 105 78 163 -14 37 -608 805 -638 825 -36 24 -120 28
-161 7z"/>
</g>
</svg>
